<svg width="48" height="48" viewBox="0 0 48 48" fill="none" xmlns="http://www.w3.org/2000/svg">
<path d="M13 37.5C12.4333 37.5 11.9583 37.3083 11.575 36.925C11.1917 36.5417 11 36.0667 11 35.5C11 34.9333 11.1917 34.4583 11.575 34.075C11.9583 33.6917 12.4333 33.5 13 33.5C13.5667 33.5 14.0417 33.6917 14.425 34.075C14.8083 34.4583 15 34.9333 15 35.5C15 36.0667 14.8083 36.5417 14.425 36.925C14.0417 37.3083 13.5667 37.5 13 37.5ZM19 44C18.4333 44 17.9583 43.8083 17.575 43.425C17.1917 43.0417 17 42.5667 17 42C17 41.4333 17.1917 40.9583 17.575 40.575C17.9583 40.1917 18.4333 40 19 40C19.5667 40 20.0417 40.1917 20.425 40.575C20.8083 40.9583 21 41.4333 21 42C21 42.5667 20.8083 43.0417 20.425 43.425C20.0417 43.8083 19.5667 44 19 44ZM25 37.5C24.4333 37.5 23.9583 37.3083 23.575 36.925C23.1917 36.5417 23 36.0667 23 35.5C23 34.9333 23.1917 34.4583 23.575 34.075C23.9583 33.6917 24.4333 33.5 25 33.5C25.5667 33.5 26.0417 33.6917 26.425 34.075C26.8083 34.4583 27 34.9333 27 35.5C27 36.0667 26.8083 36.5417 26.425 36.925C26.0417 37.3083 25.5667 37.5 25 37.5ZM37 37.5C36.4333 37.5 35.9583 37.3083 35.575 36.925C35.1917 36.5417 35 36.0667 35 35.5C35 34.9333 35.1917 34.4583 35.575 34.075C35.9583 33.6917 36.4333 33.5 37 33.5C37.5667 33.5 38.0417 33.6917 38.425 34.075C38.8083 34.4583 39 34.9333 39 35.5C39 36.0667 38.8083 36.5417 38.425 36.925C38.0417 37.3083 37.5667 37.5 37 37.5ZM31 44C30.4333 44 29.9583 43.8083 29.575 43.425C29.1917 43.0417 29 42.5667 29 42C29 41.4333 29.1917 40.9583 29.575 40.575C29.9583 40.1917 30.4333 40 31 40C31.5667 40 32.0417 40.1917 32.425 40.575C32.8083 40.9583 33 41.4333 33 42C33 42.5667 32.8083 43.0417 32.425 43.425C32.0417 43.8083 31.5667 44 31 44ZM14.5 29C11.6 29 9.125 27.975 7.075 25.925C5.025 23.875 4 21.4 4 18.5C4 15.8667 4.94167 13.5167 6.825 11.45C8.70833 9.38333 11.05 8.25 13.85 8.05C14.9167 6.18333 16.325 4.70833 18.075 3.625C19.825 2.54167 21.8 2 24 2C27.0333 2 29.575 2.95833 31.625 4.875C33.675 6.79167 34.9333 9.16667 35.4 12C38.0333 12.1333 40.125 13.025 41.675 14.675C43.225 16.325 44 18.2667 44 20.5C44 22.8333 43.175 24.8333 41.525 26.5C39.875 28.1667 37.8667 29 35.5 29H14.5ZM14.5 26H35.5C37.0333 26 38.3333 25.4583 39.4 24.375C40.4667 23.2917 41 21.9833 41 20.45C41 18.95 40.4667 17.6667 39.4 16.6C38.3333 15.5333 37.0333 15 35.5 15H32.5V13.5C32.5 11.1333 31.675 9.125 30.025 7.475C28.375 5.825 26.3667 5 24 5C22.3 5 20.7417 5.45833 19.325 6.375C17.9083 7.29167 16.8667 8.53333 16.2 10.1L15.8 11H14.4C12.3333 11.0667 10.5833 11.825 9.15 13.275C7.71667 14.725 7 16.4667 7 18.5C7 20.5667 7.73333 22.3333 9.2 23.8C10.6667 25.2667 12.4333 26 14.5 26Z" fill="black"/>
<path d="M24 24.75C23.6375 24.75 23.3281 24.6219 23.0719 24.3656C22.8156 24.1094 22.6875 23.8 22.6875 23.4375C22.6875 23.075 22.8156 22.7656 23.0719 22.5094C23.3281 22.2531 23.6375 22.125 24 22.125C24.3625 22.125 24.6719 22.2531 24.9281 22.5094C25.1844 22.7656 25.3125 23.075 25.3125 23.4375C25.3125 23.8 25.1844 24.1094 24.9281 24.3656C24.6719 24.6219 24.3625 24.75 24 24.75ZM22.6875 20.25V11.25H25.3125V20.25H22.6875Z" fill="black"/>
</svg>
