<svg width="48" height="48" viewBox="0 0 48 48" fill="none" xmlns="http://www.w3.org/2000/svg">
<path d="M27.9 43.85C27.5333 44.0167 27.1417 44.0333 26.725 43.9C26.3083 43.7667 26.0167 43.5167 25.85 43.15L22.4 36.25C22.2333 35.8833 22.2083 35.4917 22.325 35.075C22.4417 34.6583 22.6833 34.3667 23.05 34.2C23.4167 34.0333 23.8083 34.0167 24.225 34.15C24.6417 34.2833 24.9333 34.5333 25.1 34.9L28.55 41.8C28.7167 42.1667 28.7417 42.5583 28.625 42.975C28.5083 43.3917 28.2667 43.6833 27.9 43.85ZM39.9 43.8C39.5333 43.9667 39.1417 43.9833 38.725 43.85C38.3083 43.7167 38.0167 43.4667 37.85 43.1L34.4 36.2C34.2333 35.8333 34.2083 35.4417 34.325 35.025C34.4417 34.6083 34.6833 34.3167 35.05 34.15C35.4167 33.9833 35.8083 33.9667 36.225 34.1C36.6417 34.2333 36.9333 34.4833 37.1 34.85L40.55 41.75C40.7167 42.1167 40.7417 42.5083 40.625 42.925C40.5083 43.3417 40.2667 43.6333 39.9 43.8ZM15.9 43.8C15.5333 43.9667 15.1417 43.9917 14.725 43.875C14.3083 43.7583 14.0167 43.5167 13.85 43.15L10.4 36.25C10.2333 35.8833 10.2167 35.4917 10.35 35.075C10.4833 34.6583 10.7333 34.3667 11.1 34.2C11.4667 34.0333 11.8583 34.0083 12.275 34.125C12.6917 34.2417 12.9833 34.4833 13.15 34.85L16.6 41.8C16.7667 42.1667 16.7833 42.55 16.65 42.95C16.5167 43.35 16.2667 43.6333 15.9 43.8V43.8ZM14.5 31C11.6 31 9.125 29.975 7.075 27.925C5.025 25.875 4 23.4 4 20.5C4 17.8667 4.94167 15.5167 6.825 13.45C8.70833 11.3833 11.05 10.25 13.85 10.05C14.9167 8.18333 16.325 6.70833 18.075 5.625C19.825 4.54167 21.8 4 24 4C27.0333 4 29.575 4.95833 31.625 6.875C33.675 8.79167 34.9333 11.1667 35.4 14C38.0333 14.1333 40.125 15.025 41.675 16.675C43.225 18.325 44 20.2667 44 22.5C44 24.8333 43.175 26.8333 41.525 28.5C39.875 30.1667 37.8667 31 35.5 31H14.5ZM14.5 28H35.5C37.0333 28 38.3333 27.4583 39.4 26.375C40.4667 25.2917 41 24 41 22.5C41 20.9667 40.4667 19.6667 39.4 18.6C38.3333 17.5333 37.0333 17 35.5 17H32.5V15.5C32.5 13.1333 31.675 11.125 30.025 9.475C28.375 7.825 26.3667 7 24 7C22.3 7 20.7417 7.45833 19.325 8.375C17.9083 9.29167 16.8667 10.5333 16.2 12.1L15.8 13H14.4C12.3333 13.0667 10.5833 13.825 9.15 15.275C7.71667 16.725 7 18.4667 7 20.5C7 22.5667 7.73333 24.3333 9.2 25.8C10.6667 27.2667 12.4333 28 14.5 28Z" fill="black"/>
<path d="M23.0937 25.9167V23.276L21.076 25.2938L20.4937 24.725L23.0937 22.125V20.9063H21.875L19.3292 23.4521L18.7333 22.8969L20.724 20.9063H18.0833V20.0938H20.724L18.6927 18.0625L19.275 17.4802L21.875 20.0938H23.0937V18.8615L20.5479 16.3156L21.1167 15.7198L23.0937 17.7104V15.0833H23.9062V17.7104L25.9375 15.6792L26.5062 16.2615L23.9062 18.8615V20.0938H25.1385L27.6979 17.5344L28.2802 18.1031L26.2896 20.0938H28.9167V20.9063H26.2896L28.2937 22.924L27.7385 23.5062L25.1385 20.9063H23.9062V22.125L26.5062 24.7385L25.951 25.3208L23.9062 23.276V25.9167H23.0937Z" fill="black"/>
</svg>
