<svg width="140" height="90" viewBox="0 0 140 90" fill="none" xmlns="http://www.w3.org/2000/svg">
<path d="M54.844 63.336C53.2947 63.336 51.8573 63.084 50.532 62.58C49.2253 62.076 48.0867 61.3667 47.116 60.452C46.164 59.5373 45.4173 58.464 44.876 57.232C44.3533 56 44.092 54.656 44.092 53.2C44.092 51.744 44.3533 50.4 44.876 49.168C45.4173 47.936 46.1733 46.8627 47.144 45.948C48.1147 45.0333 49.2533 44.324 50.56 43.82C51.8667 43.316 53.2853 43.064 54.816 43.064C56.3653 43.064 57.784 43.316 59.072 43.82C60.3787 44.324 61.508 45.0333 62.46 45.948C63.4307 46.8627 64.1867 47.936 64.728 49.168C65.2693 50.3813 65.54 51.7253 65.54 53.2C65.54 54.656 65.2693 56.0093 64.728 57.26C64.1867 58.492 63.4307 59.5653 62.46 60.48C61.508 61.376 60.3787 62.076 59.072 62.58C57.784 63.084 56.3747 63.336 54.844 63.336ZM54.816 59.472C55.6933 59.472 56.496 59.3227 57.224 59.024C57.9707 58.7253 58.624 58.296 59.184 57.736C59.744 57.176 60.1733 56.5133 60.472 55.748C60.7893 54.9827 60.948 54.1333 60.948 53.2C60.948 52.2667 60.7893 51.4173 60.472 50.652C60.1733 49.8867 59.744 49.224 59.184 48.664C58.6427 48.104 57.9987 47.6747 57.252 47.376C56.5053 47.0773 55.6933 46.928 54.816 46.928C53.9387 46.928 53.1267 47.0773 52.38 47.376C51.652 47.6747 51.008 48.104 50.448 48.664C49.888 49.224 49.4493 49.8867 49.132 50.652C48.8333 51.4173 48.684 52.2667 48.684 53.2C48.684 54.1147 48.8333 54.964 49.132 55.748C49.4493 56.5133 49.8787 57.176 50.42 57.736C50.98 58.296 51.6333 58.7253 52.38 59.024C53.1267 59.3227 53.9387 59.472 54.816 59.472ZM77.797 47.712C78.9917 47.712 80.0557 47.9547 80.989 48.44C81.941 48.9067 82.6877 49.6347 83.229 50.624C83.7703 51.5947 84.041 52.8453 84.041 54.376V63H79.673V55.048C79.673 53.8347 79.4023 52.9387 78.861 52.36C78.3383 51.7813 77.5917 51.492 76.621 51.492C75.9303 51.492 75.305 51.6413 74.745 51.94C74.2037 52.22 73.7743 52.6587 73.457 53.256C73.1583 53.8533 73.009 54.6187 73.009 55.552V63H68.641V47.936H72.813V52.108L72.029 50.848C72.5703 49.84 73.345 49.0653 74.353 48.524C75.361 47.9827 76.509 47.712 77.797 47.712ZM92.3684 63V47.096H86.0964V43.4H103.176V47.096H96.9044V63H92.3684ZM110.946 63.224C109.34 63.224 107.912 62.888 106.662 62.216C105.43 61.544 104.45 60.6293 103.722 59.472C103.012 58.296 102.658 56.9613 102.658 55.468C102.658 53.956 103.012 52.6213 103.722 51.464C104.45 50.288 105.43 49.3733 106.662 48.72C107.912 48.048 109.34 47.712 110.946 47.712C112.532 47.712 113.951 48.048 115.202 48.72C116.452 49.3733 117.432 50.2787 118.142 51.436C118.851 52.5933 119.206 53.9373 119.206 55.468C119.206 56.9613 118.851 58.296 118.142 59.472C117.432 60.6293 116.452 61.544 115.202 62.216C113.951 62.888 112.532 63.224 110.946 63.224ZM110.946 59.64C111.674 59.64 112.327 59.472 112.906 59.136C113.484 58.8 113.942 58.324 114.278 57.708C114.614 57.0733 114.782 56.3267 114.782 55.468C114.782 54.5907 114.614 53.844 114.278 53.228C113.942 52.612 113.484 52.136 112.906 51.8C112.327 51.464 111.674 51.296 110.946 51.296C110.218 51.296 109.564 51.464 108.986 51.8C108.407 52.136 107.94 52.612 107.586 53.228C107.25 53.844 107.082 54.5907 107.082 55.468C107.082 56.3267 107.25 57.0733 107.586 57.708C107.94 58.324 108.407 58.8 108.986 59.136C109.564 59.472 110.218 59.64 110.946 59.64ZM131.029 63.224C129.76 63.224 128.649 62.944 127.697 62.384C126.745 61.824 125.999 60.9747 125.457 59.836C124.935 58.6787 124.673 57.2227 124.673 55.468C124.673 53.6947 124.925 52.2387 125.429 51.1C125.933 49.9613 126.661 49.112 127.613 48.552C128.565 47.992 129.704 47.712 131.029 47.712C132.448 47.712 133.717 48.0387 134.837 48.692C135.976 49.3267 136.872 50.2227 137.525 51.38C138.197 52.5373 138.533 53.9 138.533 55.468C138.533 57.0547 138.197 58.4267 137.525 59.584C136.872 60.7413 135.976 61.6373 134.837 62.272C133.717 62.9067 132.448 63.224 131.029 63.224ZM122.125 68.432V47.936H126.297V51.016L126.213 55.496L126.493 59.948V68.432H122.125ZM130.273 59.64C131.001 59.64 131.645 59.472 132.205 59.136C132.784 58.8 133.241 58.324 133.577 57.708C133.932 57.0733 134.109 56.3267 134.109 55.468C134.109 54.5907 133.932 53.844 133.577 53.228C133.241 52.612 132.784 52.136 132.205 51.8C131.645 51.464 131.001 51.296 130.273 51.296C129.545 51.296 128.892 51.464 128.313 51.8C127.735 52.136 127.277 52.612 126.941 53.228C126.605 53.844 126.437 54.5907 126.437 55.468C126.437 56.3267 126.605 57.0733 126.941 57.708C127.277 58.324 127.735 58.8 128.313 59.136C128.892 59.472 129.545 59.64 130.273 59.64Z" fill="#50E68C"/>
<path d="M44.098 78V71.7H46.357C46.885 71.7 47.338 71.784 47.716 71.952C48.094 72.12 48.385 72.363 48.589 72.681C48.793 72.993 48.895 73.374 48.895 73.824C48.895 74.262 48.793 74.64 48.589 74.958C48.385 75.27 48.094 75.513 47.716 75.687C47.338 75.855 46.885 75.939 46.357 75.939H44.35L44.557 75.723V78H44.098ZM48.472 78L46.834 75.714H47.356L48.994 78H48.472ZM44.557 75.75L44.35 75.534H46.357C47.035 75.534 47.548 75.384 47.896 75.084C48.25 74.784 48.427 74.364 48.427 73.824C48.427 73.278 48.25 72.858 47.896 72.564C47.548 72.264 47.035 72.114 46.357 72.114H44.35L44.557 71.889V75.75ZM53.5185 78.045C53.0505 78.045 52.6155 77.967 52.2135 77.811C51.8175 77.649 51.4695 77.424 51.1695 77.136C50.8755 76.842 50.6475 76.503 50.4855 76.119C50.3235 75.729 50.2425 75.306 50.2425 74.85C50.2425 74.394 50.3235 73.974 50.4855 73.59C50.6475 73.2 50.8755 72.861 51.1695 72.573C51.4695 72.279 51.8175 72.054 52.2135 71.898C52.6155 71.736 53.0505 71.655 53.5185 71.655C53.9865 71.655 54.4185 71.736 54.8145 71.898C55.2165 72.054 55.5645 72.276 55.8585 72.564C56.1525 72.852 56.3805 73.191 56.5425 73.581C56.7105 73.965 56.7945 74.388 56.7945 74.85C56.7945 75.312 56.7105 75.738 56.5425 76.128C56.3805 76.512 56.1525 76.848 55.8585 77.136C55.5645 77.424 55.2165 77.649 54.8145 77.811C54.4185 77.967 53.9865 78.045 53.5185 78.045ZM53.5185 77.622C53.9205 77.622 54.2925 77.553 54.6345 77.415C54.9765 77.277 55.2735 77.082 55.5255 76.83C55.7775 76.578 55.9725 76.284 56.1105 75.948C56.2545 75.612 56.3265 75.246 56.3265 74.85C56.3265 74.448 56.2545 74.082 56.1105 73.752C55.9725 73.416 55.7775 73.122 55.5255 72.87C55.2735 72.618 54.9765 72.423 54.6345 72.285C54.2925 72.147 53.9205 72.078 53.5185 72.078C53.1165 72.078 52.7445 72.147 52.4025 72.285C52.0605 72.423 51.7605 72.618 51.5025 72.87C51.2505 73.122 51.0525 73.416 50.9085 73.752C50.7705 74.082 50.7015 74.448 50.7015 74.85C50.7015 75.246 50.7705 75.612 50.9085 75.948C51.0525 76.284 51.2505 76.578 51.5025 76.83C51.7605 77.082 52.0605 77.277 52.4025 77.415C52.7445 77.553 53.1165 77.622 53.5185 77.622ZM61.3296 78.045C60.8616 78.045 60.4266 77.967 60.0246 77.811C59.6286 77.649 59.2806 77.424 58.9806 77.136C58.6866 76.842 58.4586 76.503 58.2966 76.119C58.1346 75.729 58.0536 75.306 58.0536 74.85C58.0536 74.394 58.1346 73.974 58.2966 73.59C58.4586 73.2 58.6866 72.861 58.9806 72.573C59.2806 72.279 59.6286 72.054 60.0246 71.898C60.4266 71.736 60.8616 71.655 61.3296 71.655C61.7976 71.655 62.2296 71.736 62.6256 71.898C63.0276 72.054 63.3756 72.276 63.6696 72.564C63.9636 72.852 64.1916 73.191 64.3536 73.581C64.5216 73.965 64.6056 74.388 64.6056 74.85C64.6056 75.312 64.5216 75.738 64.3536 76.128C64.1916 76.512 63.9636 76.848 63.6696 77.136C63.3756 77.424 63.0276 77.649 62.6256 77.811C62.2296 77.967 61.7976 78.045 61.3296 78.045ZM61.3296 77.622C61.7316 77.622 62.1036 77.553 62.4456 77.415C62.7876 77.277 63.0846 77.082 63.3366 76.83C63.5886 76.578 63.7836 76.284 63.9216 75.948C64.0656 75.612 64.1376 75.246 64.1376 74.85C64.1376 74.448 64.0656 74.082 63.9216 73.752C63.7836 73.416 63.5886 73.122 63.3366 72.87C63.0846 72.618 62.7876 72.423 62.4456 72.285C62.1036 72.147 61.7316 72.078 61.3296 72.078C60.9276 72.078 60.5556 72.147 60.2136 72.285C59.8716 72.423 59.5716 72.618 59.3136 72.87C59.0616 73.122 58.8636 73.416 58.7196 73.752C58.5816 74.082 58.5126 74.448 58.5126 74.85C58.5126 75.246 58.5816 75.612 58.7196 75.948C58.8636 76.284 59.0616 76.578 59.3136 76.83C59.5716 77.082 59.8716 77.277 60.2136 77.415C60.5556 77.553 60.9276 77.622 61.3296 77.622ZM66.8726 74.805H70.2836V75.219H66.8726V74.805ZM66.9266 78H66.4676V71.7H70.6796V72.114H66.9266V78ZM73.6653 78V72.114H71.3972V71.7H76.3923V72.114H74.1243V78H73.6653ZM80.3856 78.045C79.9176 78.045 79.4826 77.967 79.0806 77.811C78.6846 77.649 78.3366 77.424 78.0366 77.136C77.7426 76.842 77.5146 76.503 77.3526 76.119C77.1906 75.729 77.1096 75.306 77.1096 74.85C77.1096 74.394 77.1906 73.974 77.3526 73.59C77.5146 73.2 77.7426 72.861 78.0366 72.573C78.3366 72.279 78.6846 72.054 79.0806 71.898C79.4826 71.736 79.9176 71.655 80.3856 71.655C80.8536 71.655 81.2856 71.736 81.6816 71.898C82.0836 72.054 82.4316 72.276 82.7256 72.564C83.0196 72.852 83.2476 73.191 83.4096 73.581C83.5776 73.965 83.6616 74.388 83.6616 74.85C83.6616 75.312 83.5776 75.738 83.4096 76.128C83.2476 76.512 83.0196 76.848 82.7256 77.136C82.4316 77.424 82.0836 77.649 81.6816 77.811C81.2856 77.967 80.8536 78.045 80.3856 78.045ZM80.3856 77.622C80.7876 77.622 81.1596 77.553 81.5016 77.415C81.8436 77.277 82.1406 77.082 82.3926 76.83C82.6446 76.578 82.8396 76.284 82.9776 75.948C83.1216 75.612 83.1936 75.246 83.1936 74.85C83.1936 74.448 83.1216 74.082 82.9776 73.752C82.8396 73.416 82.6446 73.122 82.3926 72.87C82.1406 72.618 81.8436 72.423 81.5016 72.285C81.1596 72.147 80.7876 72.078 80.3856 72.078C79.9836 72.078 79.6116 72.147 79.2696 72.285C78.9276 72.423 78.6276 72.618 78.3696 72.87C78.1176 73.122 77.9196 73.416 77.7756 73.752C77.6376 74.082 77.5686 74.448 77.5686 74.85C77.5686 75.246 77.6376 75.612 77.7756 75.948C77.9196 76.284 78.1176 76.578 78.3696 76.83C78.6276 77.082 78.9276 77.277 79.2696 77.415C79.6116 77.553 79.9836 77.622 80.3856 77.622ZM85.5237 78V71.7H87.7827C88.3107 71.7 88.7637 71.784 89.1417 71.952C89.5197 72.12 89.8107 72.363 90.0147 72.681C90.2187 72.993 90.3207 73.374 90.3207 73.824C90.3207 74.262 90.2187 74.64 90.0147 74.958C89.8107 75.276 89.5197 75.519 89.1417 75.687C88.7637 75.855 88.3107 75.939 87.7827 75.939H85.7757L85.9827 75.723V78H85.5237ZM85.9827 75.75L85.7757 75.525H87.7827C88.4607 75.525 88.9737 75.378 89.3217 75.084C89.6757 74.784 89.8527 74.364 89.8527 73.824C89.8527 73.278 89.6757 72.858 89.3217 72.564C88.9737 72.264 88.4607 72.114 87.7827 72.114H85.7757L85.9827 71.889V75.75ZM95.2138 74.805H98.6248V75.219H95.2138V74.805ZM95.2678 78H94.8088V71.7H99.0208V72.114H95.2678V78ZM99.3959 78L102.294 71.7H102.753L105.651 78H105.156L102.42 71.988H102.618L99.8909 78H99.3959ZM100.458 76.227L100.611 75.84H104.382L104.535 76.227H100.458ZM107.065 78V71.7H109.324C109.852 71.7 110.305 71.784 110.683 71.952C111.061 72.12 111.352 72.363 111.556 72.681C111.76 72.993 111.862 73.374 111.862 73.824C111.862 74.262 111.76 74.64 111.556 74.958C111.352 75.27 111.061 75.513 110.683 75.687C110.305 75.855 109.852 75.939 109.324 75.939H107.317L107.524 75.723V78H107.065ZM111.439 78L109.801 75.714H110.323L111.961 78H111.439ZM107.524 75.75L107.317 75.534H109.324C110.002 75.534 110.515 75.384 110.863 75.084C111.217 74.784 111.394 74.364 111.394 73.824C111.394 73.278 111.217 72.858 110.863 72.564C110.515 72.264 110.002 72.114 109.324 72.114H107.317L107.524 71.889V75.75ZM113.812 78V71.7H114.199L117.124 76.749H116.917L119.833 71.7H120.211L120.22 78H119.77L119.761 72.393H119.887L117.124 77.163H116.899L114.127 72.393H114.262V78H113.812ZM122.687 78V71.7H123.146V78H122.687ZM125.611 78V71.7H125.998L130.489 77.433H130.282V71.7H130.741V78H130.363L125.863 72.267H126.07V78H125.611ZM135.902 78.045C135.428 78.045 134.99 77.967 134.588 77.811C134.186 77.649 133.835 77.424 133.535 77.136C133.241 76.848 133.013 76.512 132.851 76.128C132.689 75.738 132.608 75.312 132.608 74.85C132.608 74.388 132.689 73.965 132.851 73.581C133.013 73.191 133.244 72.852 133.544 72.564C133.844 72.276 134.192 72.054 134.588 71.898C134.99 71.736 135.431 71.655 135.911 71.655C136.367 71.655 136.79 71.727 137.18 71.871C137.57 72.015 137.903 72.231 138.179 72.519L137.891 72.825C137.615 72.555 137.312 72.363 136.982 72.249C136.658 72.135 136.304 72.078 135.92 72.078C135.512 72.078 135.134 72.147 134.786 72.285C134.438 72.423 134.135 72.618 133.877 72.87C133.619 73.122 133.418 73.416 133.274 73.752C133.136 74.088 133.067 74.454 133.067 74.85C133.067 75.246 133.136 75.612 133.274 75.948C133.418 76.284 133.619 76.578 133.877 76.83C134.135 77.082 134.438 77.277 134.786 77.415C135.134 77.553 135.512 77.622 135.92 77.622C136.292 77.622 136.643 77.565 136.973 77.451C137.309 77.337 137.615 77.148 137.891 76.884L138.152 77.235C137.87 77.505 137.531 77.709 137.135 77.847C136.745 77.979 136.334 78.045 135.902 78.045ZM137.711 77.19V74.877H138.152V77.235L137.711 77.19Z" fill="#5C5C5C"/>
<path d="M1 79.223V37.2097C1 36.2918 1.42024 35.4244 2.1406 34.8555L13.0151 26.2668C13.9828 25.5025 15.3196 25.4082 16.385 26.0291L32.5105 35.4261C33.4328 35.9636 34 36.9506 34 38.0181V78.932C34 80.1435 33.2713 81.2361 32.1529 81.7016L16.0072 88.4222C15.1336 88.7858 14.1396 88.716 13.3254 88.2337L2.47106 81.8042C1.5592 81.264 1 80.2828 1 79.223Z" stroke="#333333"/>
<path d="M32.4105 36.6576C32.717 36.8365 32.9058 37.1643 32.9065 37.5192L32.9985 79.3254C32.9994 79.7298 32.7567 80.095 32.3834 80.2506L16.3849 86.9225C15.7262 87.1972 15 86.7132 15 85.9995V28.2412C15 27.4693 15.8373 26.9885 16.5039 27.3774L32.4105 36.6576Z" fill="#333333"/>
<path d="M17.5 35.7591C17.5 35.0434 18.23 34.5594 18.8892 34.838L22.8892 36.5282C23.2594 36.6847 23.5 37.0475 23.5 37.4494V40.3402V41.9841C23.5 42.6303 22.8963 43.1068 22.2678 42.9567L18.2678 42.0019C17.8176 41.8944 17.5 41.492 17.5 41.0292V35.7591Z" fill="white"/>
<path d="M17.5 58.4245C17.5 57.8089 18.0509 57.3395 18.6588 57.4372L22.6587 58.0803C23.1435 58.1583 23.5 58.5766 23.5 59.0677V61.0659V64.0534C23.5 64.6332 23.0084 65.0915 22.4299 65.0509L18.43 64.77C17.9061 64.7332 17.5 64.2975 17.5 63.7724V58.4245Z" fill="white"/>
<path d="M24.9951 48.0771C24.9951 47.4423 25.579 46.9681 26.2003 47.0984L30.2004 47.9372C30.6635 48.0343 30.9951 48.4427 30.9951 48.9159V51.3321C30.9951 52.4426 30.9951 53.1964 30.9951 54.115C30.9951 54.7071 30.4835 55.1698 29.8944 55.1101L25.8943 54.705C25.3837 54.6533 24.9951 54.2234 24.9951 53.7101V48.0771Z" fill="white"/>
<path d="M24.9713 70.3191C24.983 69.7314 25.4984 69.2789 26.0825 69.3453L30.1082 69.8033C30.6134 69.8608 30.9951 70.2883 30.9951 70.7969V72.5178V75.6162C30.9951 76.1013 30.6471 76.5163 30.1695 76.6009L26.1638 77.3104C25.5532 77.4185 24.9928 76.9496 24.9849 76.3296C24.9582 74.2315 24.9034 73.7279 24.9713 70.3191Z" fill="white"/>
<path d="M40.1838 9.53339C33.5417 10.3223 29.266 13.3963 28.0021 18.3201C27.5987 19.8434 27.6794 22.1829 28.1096 22.455C28.2172 22.5094 28.9971 21.53 29.8576 20.2515C30.6912 19.0001 32.224 17.0687 33.2728 15.9806L35.1283 14.0219L33.0308 16.6062C30.6105 19.5714 28.7819 22.3461 27.1416 25.4201C26.039 27.5148 25.9852 27.5692 25.797 26.7803C25.6894 26.345 25.2592 25.2841 24.8289 24.3864C23.9953 22.6998 23.9684 21.9109 24.802 23.4615L25.2861 24.3592L25.3667 22.7542C25.4743 20.7683 24.8827 18.7825 23.6726 17.1231C22.6238 15.6269 21.0103 14.7564 18.9397 14.5116L17.4876 14.3484L18.1867 15.1373C19.2355 16.307 19.6389 17.2319 20.5532 20.7956C21.5751 24.7672 22.328 25.937 23.7264 25.801C24.318 25.7466 24.7213 25.8826 24.8827 26.1274C25.2861 26.7531 25.2054 28.1132 24.7213 28.7933C24.2104 29.5278 24.3718 29.7998 25.6894 30.4799L26.7113 30.9968L27.3029 29.0381C27.6256 27.9772 28.1903 26.5082 28.5399 25.8282L29.1584 24.5496L30.2341 24.8216C31.7669 25.2297 32.9501 24.9033 34.2678 23.7879C35.5585 22.6726 36.2308 21.4212 37.6561 17.5584C39.3771 12.8794 40.1838 11.5736 42.2276 10.1863C43.5184 9.28856 43.5453 9.26136 42.7654 9.28856C42.3083 9.31576 41.1519 9.42458 40.1838 9.53339Z" fill="#50E68C"/>
</svg>
