<svg width="197" height="104" viewBox="0 0 197 104" fill="none" xmlns="http://www.w3.org/2000/svg">
<path d="M87.228 68.4391C85.236 68.4391 83.388 68.1151 81.684 67.4671C80.004 66.8191 78.54 65.9071 77.292 64.7311C76.068 63.5551 75.108 62.1751 74.412 60.5911C73.74 59.0071 73.404 57.2791 73.404 55.4071C73.404 53.5351 73.74 51.8071 74.412 50.2231C75.108 48.6391 76.08 47.2591 77.328 46.0831C78.576 44.9071 80.04 43.9951 81.72 43.3471C83.4 42.6991 85.224 42.3751 87.192 42.3751C89.184 42.3751 91.008 42.6991 92.664 43.3471C94.344 43.9951 95.796 44.9071 97.02 46.0831C98.268 47.2591 99.24 48.6391 99.936 50.2231C100.632 51.7831 100.98 53.5111 100.98 55.4071C100.98 57.2791 100.632 59.0191 99.936 60.6271C99.24 62.2111 98.268 63.5911 97.02 64.7671C95.796 65.9191 94.344 66.8191 92.664 67.4671C91.008 68.1151 89.196 68.4391 87.228 68.4391ZM87.192 63.4711C88.32 63.4711 89.352 63.2791 90.288 62.8951C91.248 62.5111 92.088 61.9591 92.808 61.2391C93.528 60.5191 94.08 59.6671 94.464 58.6831C94.872 57.6991 95.076 56.6071 95.076 55.4071C95.076 54.2071 94.872 53.1151 94.464 52.1311C94.08 51.1471 93.528 50.2951 92.808 49.5751C92.112 48.8551 91.284 48.3031 90.324 47.9191C89.364 47.5351 88.32 47.3431 87.192 47.3431C86.064 47.3431 85.02 47.5351 84.06 47.9191C83.124 48.3031 82.296 48.8551 81.576 49.5751C80.856 50.2951 80.292 51.1471 79.884 52.1311C79.5 53.1151 79.308 54.2071 79.308 55.4071C79.308 56.5831 79.5 57.6751 79.884 58.6831C80.292 59.6671 80.844 60.5191 81.54 61.2391C82.26 61.9591 83.1 62.5111 84.06 62.8951C85.02 63.2791 86.064 63.4711 87.192 63.4711ZM116.739 48.3511C118.275 48.3511 119.643 48.6631 120.843 49.2871C122.067 49.8871 123.027 50.8231 123.723 52.0951C124.419 53.3431 124.767 54.9511 124.767 56.9191V68.0071H119.151V57.7831C119.151 56.2231 118.803 55.0711 118.107 54.3271C117.435 53.5831 116.475 53.2111 115.227 53.2111C114.339 53.2111 113.535 53.4031 112.815 53.7871C112.119 54.1471 111.567 54.7111 111.159 55.4791C110.775 56.2471 110.583 57.2311 110.583 58.4311V68.0071H104.967V48.6391H110.331V54.0031L109.323 52.3831C110.019 51.0871 111.015 50.0911 112.311 49.3951C113.607 48.6991 115.083 48.3511 116.739 48.3511ZM135.474 68.0071V47.5591H127.41V42.8071H149.37V47.5591H141.306V68.0071H135.474ZM159.359 68.2951C157.295 68.2951 155.459 67.8631 153.851 66.9991C152.267 66.1351 151.007 64.9591 150.071 63.4711C149.159 61.9591 148.703 60.2431 148.703 58.3231C148.703 56.3791 149.159 54.6631 150.071 53.1751C151.007 51.6631 152.267 50.4871 153.851 49.6471C155.459 48.7831 157.295 48.3511 159.359 48.3511C161.399 48.3511 163.223 48.7831 164.831 49.6471C166.439 50.4871 167.699 51.6511 168.611 53.1391C169.523 54.6271 169.979 56.3551 169.979 58.3231C169.979 60.2431 169.523 61.9591 168.611 63.4711C167.699 64.9591 166.439 66.1351 164.831 66.9991C163.223 67.8631 161.399 68.2951 159.359 68.2951ZM159.359 63.6871C160.295 63.6871 161.135 63.4711 161.879 63.0391C162.623 62.6071 163.211 61.9951 163.643 61.2031C164.075 60.3871 164.291 59.4271 164.291 58.3231C164.291 57.1951 164.075 56.2351 163.643 55.4431C163.211 54.6511 162.623 54.0391 161.879 53.6071C161.135 53.1751 160.295 52.9591 159.359 52.9591C158.423 52.9591 157.583 53.1751 156.839 53.6071C156.095 54.0391 155.495 54.6511 155.039 55.4431C154.607 56.2351 154.391 57.1951 154.391 58.3231C154.391 59.4271 154.607 60.3871 155.039 61.2031C155.495 61.9951 156.095 62.6071 156.839 63.0391C157.583 63.4711 158.423 63.6871 159.359 63.6871ZM185.181 68.2951C183.549 68.2951 182.121 67.9351 180.897 67.2151C179.673 66.4951 178.713 65.4031 178.017 63.9391C177.345 62.4511 177.009 60.5791 177.009 58.3231C177.009 56.0431 177.333 54.1711 177.981 52.7071C178.629 51.2431 179.565 50.1511 180.789 49.4311C182.013 48.7111 183.477 48.3511 185.181 48.3511C187.005 48.3511 188.637 48.7711 190.077 49.6111C191.541 50.4271 192.693 51.5791 193.533 53.0671C194.397 54.5551 194.829 56.3071 194.829 58.3231C194.829 60.3631 194.397 62.1271 193.533 63.6151C192.693 65.1031 191.541 66.2551 190.077 67.0711C188.637 67.8871 187.005 68.2951 185.181 68.2951ZM173.733 74.9911V48.6391H179.097V52.5991L178.989 58.3591L179.349 64.0831V74.9911H173.733ZM184.209 63.6871C185.145 63.6871 185.973 63.4711 186.693 63.0391C187.437 62.6071 188.025 61.9951 188.457 61.2031C188.913 60.3871 189.141 59.4271 189.141 58.3231C189.141 57.1951 188.913 56.2351 188.457 55.4431C188.025 54.6511 187.437 54.0391 186.693 53.6071C185.973 53.1751 185.145 52.9591 184.209 52.9591C183.273 52.9591 182.433 53.1751 181.689 53.6071C180.945 54.0391 180.357 54.6511 179.925 55.4431C179.493 56.2351 179.277 57.1951 179.277 58.3231C179.277 59.4271 179.493 60.3871 179.925 61.2031C180.357 61.9951 180.945 62.6071 181.689 63.0391C182.433 63.4711 183.273 63.6871 184.209 63.6871Z" fill="#50E68C"/>
<path d="M73.708 88.0159V78.2159H77.586C78.622 78.2159 79.532 78.4259 80.316 78.8459C81.1 79.2659 81.7067 79.8446 82.136 80.5819C82.5747 81.3192 82.794 82.1639 82.794 83.1159C82.794 84.0679 82.5747 84.9126 82.136 85.6499C81.7067 86.3872 81.1 86.9659 80.316 87.3859C79.532 87.8059 78.622 88.0159 77.586 88.0159H73.708ZM74.422 87.3719H77.53C78.454 87.3719 79.2567 87.1899 79.938 86.8259C80.6193 86.4619 81.1467 85.9626 81.52 85.3279C81.8933 84.6839 82.08 83.9466 82.08 83.1159C82.08 82.2852 81.8933 81.5526 81.52 80.9179C81.1467 80.2739 80.6193 79.7699 79.938 79.4059C79.2567 79.0419 78.454 78.8599 77.53 78.8599H74.422V87.3719ZM83.4997 88.0159L88.0077 78.2159H88.7217L93.2297 88.0159H92.4597L88.2037 78.6639H88.5117L84.2697 88.0159H83.4997ZM85.1517 85.2579L85.3897 84.6559H91.2557L91.4937 85.2579H85.1517ZM96.3926 88.0159V78.8599H92.8646V78.2159H100.635V78.8599H97.1066V88.0159H96.3926ZM100.275 88.0159L104.783 78.2159H105.497L110.005 88.0159H109.235L104.979 78.6639H105.287L101.045 88.0159H100.275ZM101.927 85.2579L102.165 84.6559H108.031L108.269 85.2579H101.927ZM115.791 88.0859C115.063 88.0859 114.387 87.9646 113.761 87.7219C113.145 87.4699 112.609 87.1199 112.151 86.6719C111.694 86.2239 111.339 85.7012 111.087 85.1039C110.835 84.4972 110.709 83.8346 110.709 83.1159C110.709 82.3972 110.835 81.7392 111.087 81.1419C111.339 80.5352 111.694 80.0079 112.151 79.5599C112.618 79.1119 113.159 78.7666 113.775 78.5239C114.391 78.2719 115.063 78.1459 115.791 78.1459C116.482 78.1459 117.126 78.2579 117.723 78.4819C118.33 78.7059 118.848 79.0466 119.277 79.5039L118.829 79.9659C118.409 79.5552 117.943 79.2612 117.429 79.0839C116.925 78.8972 116.389 78.8039 115.819 78.8039C115.194 78.8039 114.611 78.9112 114.069 79.1259C113.537 79.3406 113.071 79.6439 112.669 80.0359C112.277 80.4279 111.969 80.8852 111.745 81.4079C111.531 81.9306 111.423 82.4999 111.423 83.1159C111.423 83.7319 111.531 84.3012 111.745 84.8239C111.969 85.3466 112.277 85.8039 112.669 86.1959C113.071 86.5879 113.537 86.8912 114.069 87.1059C114.611 87.3206 115.194 87.4279 115.819 87.4279C116.389 87.4279 116.925 87.3392 117.429 87.1619C117.943 86.9752 118.409 86.6719 118.829 86.2519L119.277 86.7139C118.848 87.1712 118.33 87.5166 117.723 87.7499C117.126 87.9739 116.482 88.0859 115.791 88.0859ZM125.622 88.0859C124.894 88.0859 124.217 87.9646 123.592 87.7219C122.976 87.4699 122.435 87.1199 121.968 86.6719C121.511 86.2146 121.156 85.6872 120.904 85.0899C120.652 84.4832 120.526 83.8252 120.526 83.1159C120.526 82.4066 120.652 81.7532 120.904 81.1559C121.156 80.5492 121.511 80.0219 121.968 79.5739C122.435 79.1166 122.976 78.7666 123.592 78.5239C124.217 78.2719 124.894 78.1459 125.622 78.1459C126.35 78.1459 127.022 78.2719 127.638 78.5239C128.263 78.7666 128.805 79.1119 129.262 79.5599C129.719 80.0079 130.074 80.5352 130.326 81.1419C130.587 81.7392 130.718 82.3972 130.718 83.1159C130.718 83.8346 130.587 84.4972 130.326 85.1039C130.074 85.7012 129.719 86.2239 129.262 86.6719C128.805 87.1199 128.263 87.4699 127.638 87.7219C127.022 87.9646 126.35 88.0859 125.622 88.0859ZM125.622 87.4279C126.247 87.4279 126.826 87.3206 127.358 87.1059C127.89 86.8912 128.352 86.5879 128.744 86.1959C129.136 85.8039 129.439 85.3466 129.654 84.8239C129.878 84.3012 129.99 83.7319 129.99 83.1159C129.99 82.4906 129.878 81.9212 129.654 81.4079C129.439 80.8852 129.136 80.4279 128.744 80.0359C128.352 79.6439 127.89 79.3406 127.358 79.1259C126.826 78.9112 126.247 78.8039 125.622 78.8039C124.997 78.8039 124.418 78.9112 123.886 79.1259C123.354 79.3406 122.887 79.6439 122.486 80.0359C122.094 80.4279 121.786 80.8852 121.562 81.4079C121.347 81.9212 121.24 82.4906 121.24 83.1159C121.24 83.7319 121.347 84.3012 121.562 84.8239C121.786 85.3466 122.094 85.8039 122.486 86.1959C122.887 86.5879 123.354 86.8912 123.886 87.1059C124.418 87.3206 124.997 87.4279 125.622 87.4279ZM133.194 88.0159V78.2159H133.908V87.3719H139.55V88.0159H133.194ZM141.384 88.0159V78.2159H142.098V87.3719H147.74V88.0159H141.384ZM150.203 82.7239H155.509V83.3539H150.203V82.7239ZM150.287 87.3719H156.335V88.0159H149.573V78.2159H156.125V78.8599H150.287V87.3719ZM163.041 88.0859C162.313 88.0859 161.637 87.9646 161.011 87.7219C160.395 87.4699 159.859 87.1199 159.401 86.6719C158.944 86.2239 158.589 85.7012 158.337 85.1039C158.085 84.4972 157.959 83.8346 157.959 83.1159C157.959 82.3972 158.085 81.7392 158.337 81.1419C158.589 80.5352 158.944 80.0079 159.401 79.5599C159.868 79.1119 160.409 78.7666 161.025 78.5239C161.641 78.2719 162.313 78.1459 163.041 78.1459C163.732 78.1459 164.376 78.2579 164.973 78.4819C165.58 78.7059 166.098 79.0466 166.527 79.5039L166.079 79.9659C165.659 79.5552 165.193 79.2612 164.679 79.0839C164.175 78.8972 163.639 78.8039 163.069 78.8039C162.444 78.8039 161.861 78.9112 161.319 79.1259C160.787 79.3406 160.321 79.6439 159.919 80.0359C159.527 80.4279 159.219 80.8852 158.995 81.4079C158.781 81.9306 158.673 82.4999 158.673 83.1159C158.673 83.7319 158.781 84.3012 158.995 84.8239C159.219 85.3466 159.527 85.8039 159.919 86.1959C160.321 86.5879 160.787 86.8912 161.319 87.1059C161.861 87.3206 162.444 87.4279 163.069 87.4279C163.639 87.4279 164.175 87.3392 164.679 87.1619C165.193 86.9752 165.659 86.6719 166.079 86.2519L166.527 86.7139C166.098 87.1712 165.58 87.5166 164.973 87.7499C164.376 87.9739 163.732 88.0859 163.041 88.0859ZM170.672 88.0159V78.8599H167.144V78.2159H174.914V78.8599H171.386V88.0159H170.672ZM180.706 88.0859C179.978 88.0859 179.301 87.9646 178.676 87.7219C178.06 87.4699 177.519 87.1199 177.052 86.6719C176.595 86.2146 176.24 85.6872 175.988 85.0899C175.736 84.4832 175.61 83.8252 175.61 83.1159C175.61 82.4066 175.736 81.7532 175.988 81.1559C176.24 80.5492 176.595 80.0219 177.052 79.5739C177.519 79.1166 178.06 78.7666 178.676 78.5239C179.301 78.2719 179.978 78.1459 180.706 78.1459C181.434 78.1459 182.106 78.2719 182.722 78.5239C183.347 78.7666 183.889 79.1119 184.346 79.5599C184.803 80.0079 185.158 80.5352 185.41 81.1419C185.671 81.7392 185.802 82.3972 185.802 83.1159C185.802 83.8346 185.671 84.4972 185.41 85.1039C185.158 85.7012 184.803 86.2239 184.346 86.6719C183.889 87.1199 183.347 87.4699 182.722 87.7219C182.106 87.9646 181.434 88.0859 180.706 88.0859ZM180.706 87.4279C181.331 87.4279 181.91 87.3206 182.442 87.1059C182.974 86.8912 183.436 86.5879 183.828 86.1959C184.22 85.8039 184.523 85.3466 184.738 84.8239C184.962 84.3012 185.074 83.7319 185.074 83.1159C185.074 82.4906 184.962 81.9212 184.738 81.4079C184.523 80.8852 184.22 80.4279 183.828 80.0359C183.436 79.6439 182.974 79.3406 182.442 79.1259C181.91 78.9112 181.331 78.8039 180.706 78.8039C180.081 78.8039 179.502 78.9112 178.97 79.1259C178.438 79.3406 177.971 79.6439 177.57 80.0359C177.178 80.4279 176.87 80.8852 176.646 81.4079C176.431 81.9212 176.324 82.4906 176.324 83.1159C176.324 83.7319 176.431 84.3012 176.646 84.8239C176.87 85.3466 177.178 85.8039 177.57 86.1959C177.971 86.5879 178.438 86.8912 178.97 87.1059C179.502 87.3206 180.081 87.4279 180.706 87.4279ZM188.278 88.0159V78.2159H191.792C192.614 78.2159 193.318 78.3466 193.906 78.6079C194.494 78.8692 194.947 79.2472 195.264 79.7419C195.582 80.2272 195.74 80.8199 195.74 81.5199C195.74 82.2012 195.582 82.7892 195.264 83.2839C194.947 83.7692 194.494 84.1472 193.906 84.4179C193.318 84.6792 192.614 84.8099 191.792 84.8099H188.67L188.992 84.4739V88.0159H188.278ZM195.082 88.0159L192.534 84.4599H193.346L195.894 88.0159H195.082ZM188.992 84.5159L188.67 84.1799H191.792C192.847 84.1799 193.645 83.9466 194.186 83.4799C194.737 83.0132 195.012 82.3599 195.012 81.5199C195.012 80.6706 194.737 80.0172 194.186 79.5599C193.645 79.0932 192.847 78.8599 191.792 78.8599H188.67L188.992 78.5099V84.5159Z" fill="#5C5C5C"/>
<path d="M29 88.223V46.2097C29 45.2918 29.4202 44.4244 30.1406 43.8555L41.0151 35.2668C41.9828 34.5025 43.3196 34.4082 44.385 35.0291L60.5105 44.4261C61.4328 44.9636 62 45.9506 62 47.0181V87.932C62 89.1435 61.2713 90.2361 60.1529 90.7016L44.0072 97.4222C43.1336 97.7858 42.1396 97.716 41.3254 97.2337L30.4711 90.8042C29.5592 90.264 29 89.2828 29 88.223Z" stroke="#333333"/>
<path d="M60.4105 45.6576C60.717 45.8365 60.9058 46.1643 60.9065 46.5192L60.9985 88.3254C60.9994 88.7298 60.7567 89.095 60.3834 89.2506L44.3849 95.9225C43.7262 96.1972 43 95.7132 43 94.9995V37.2412C43 36.4693 43.8373 35.9885 44.5039 36.3774L60.4105 45.6576Z" fill="#333333"/>
<path d="M45.5 44.7591C45.5 44.0434 46.23 43.5594 46.8892 43.838L50.8892 45.5283C51.2594 45.6847 51.5 46.0475 51.5 46.4494V49.3402V50.9841C51.5 51.6303 50.8963 52.1068 50.2678 51.9568L46.2678 51.0019C45.8176 50.8944 45.5 50.492 45.5 50.0292V44.7591Z" fill="white"/>
<path d="M45.5 67.4245C45.5 66.8089 46.0509 66.3395 46.6588 66.4372L50.6587 67.0803C51.1435 67.1583 51.5 67.5766 51.5 68.0677V70.0659V73.0534C51.5 73.6332 51.0084 74.0915 50.4299 74.0509L46.43 73.77C45.9061 73.7332 45.5 73.2975 45.5 72.7724V67.4245Z" fill="white"/>
<path d="M52.9951 57.0771C52.9951 56.4423 53.579 55.9681 54.2003 56.0984L58.2004 56.9372C58.6635 57.0343 58.9951 57.4427 58.9951 57.9159V60.3321C58.9951 61.4426 58.9951 62.1964 58.9951 63.115C58.9951 63.7071 58.4835 64.1698 57.8944 64.1101L53.8943 63.705C53.3837 63.6533 52.9951 63.2234 52.9951 62.7101V57.0771Z" fill="white"/>
<path d="M52.9713 79.3221C52.983 78.7344 53.4984 78.2819 54.0825 78.3483L58.1082 78.8063C58.6134 78.8638 58.9951 79.2913 58.9951 79.7999V81.5208V84.6193C58.9951 85.1043 58.6471 85.5193 58.1695 85.6039L54.1638 86.3134C53.5532 86.4215 52.9928 85.9526 52.9849 85.3326C52.9582 83.2345 52.9034 82.7309 52.9713 79.3221Z" fill="white"/>
<path d="M67.2963 17.7726C60.6541 18.5615 56.3784 21.6355 55.1145 26.5593C54.7111 28.0827 54.7918 30.4221 55.2221 30.6942C55.3296 30.7486 56.1095 29.7693 56.97 28.4907C57.8036 27.2394 59.3364 25.3079 60.3852 24.2198L62.2407 22.2612L60.1432 24.8455C57.723 27.8106 55.8943 30.5854 54.254 33.6593C53.1514 35.754 53.0977 35.8084 52.9094 35.0195C52.8018 34.5842 52.3716 33.5233 51.9413 32.6256C51.1077 30.939 51.0808 30.1501 51.9144 31.7007L52.3985 32.5984L52.4791 30.9934C52.5867 29.0076 51.9951 27.0217 50.785 25.3623C49.7362 23.8661 48.1228 22.9956 46.0521 22.7508L44.6 22.5876L45.2992 23.3765C46.3479 24.5462 46.7513 25.4711 47.6656 29.0348C48.6875 33.0065 49.4404 34.1762 50.8388 34.0402C51.4304 33.9858 51.8338 34.1218 51.9951 34.3666C52.3985 34.9923 52.3178 36.3525 51.8338 37.0325C51.3228 37.767 51.4842 38.0391 52.8018 38.7191L53.8237 39.236L54.4153 37.2774C54.738 36.2164 55.3027 34.7475 55.6523 34.0674L56.2708 32.7888L57.3465 33.0609C58.8793 33.4689 60.0625 33.1425 61.3802 32.0271C62.671 30.9118 63.3432 29.6604 64.7685 25.7976C66.4895 21.1186 67.2963 19.8129 69.34 18.4255C70.6308 17.5278 70.6577 17.5006 69.8778 17.5278C69.4207 17.555 68.2644 17.6638 67.2963 17.7726Z" fill="#333333"/>
</svg>
