<svg width="169" height="90" viewBox="0 0 169 90" fill="none" xmlns="http://www.w3.org/2000/svg">
<path d="M59.228 59.4391C57.236 59.4391 55.388 59.1151 53.684 58.4671C52.004 57.8191 50.54 56.9071 49.292 55.7311C48.068 54.5551 47.108 53.1751 46.412 51.5911C45.74 50.0071 45.404 48.2791 45.404 46.4071C45.404 44.5351 45.74 42.8071 46.412 41.2231C47.108 39.6391 48.08 38.2591 49.328 37.0831C50.576 35.9071 52.04 34.9951 53.72 34.3471C55.4 33.6991 57.224 33.3751 59.192 33.3751C61.184 33.3751 63.008 33.6991 64.664 34.3471C66.344 34.9951 67.796 35.9071 69.02 37.0831C70.268 38.2591 71.24 39.6391 71.936 41.2231C72.632 42.7831 72.98 44.5111 72.98 46.4071C72.98 48.2791 72.632 50.0191 71.936 51.6271C71.24 53.2111 70.268 54.5911 69.02 55.7671C67.796 56.9191 66.344 57.8191 64.664 58.4671C63.008 59.1151 61.196 59.4391 59.228 59.4391ZM59.192 54.4711C60.32 54.4711 61.352 54.2791 62.288 53.8951C63.248 53.5111 64.088 52.9591 64.808 52.2391C65.528 51.5191 66.08 50.6671 66.464 49.6831C66.872 48.6991 67.076 47.6071 67.076 46.4071C67.076 45.2071 66.872 44.1151 66.464 43.1311C66.08 42.1471 65.528 41.2951 64.808 40.5751C64.112 39.8551 63.284 39.3031 62.324 38.9191C61.364 38.5351 60.32 38.3431 59.192 38.3431C58.064 38.3431 57.02 38.5351 56.06 38.9191C55.124 39.3031 54.296 39.8551 53.576 40.5751C52.856 41.2951 52.292 42.1471 51.884 43.1311C51.5 44.1151 51.308 45.2071 51.308 46.4071C51.308 47.5831 51.5 48.6751 51.884 49.6831C52.292 50.6671 52.844 51.5191 53.54 52.2391C54.26 52.9591 55.1 53.5111 56.06 53.8951C57.02 54.2791 58.064 54.4711 59.192 54.4711ZM88.739 39.3511C90.275 39.3511 91.643 39.6631 92.843 40.2871C94.067 40.8871 95.027 41.8231 95.723 43.0951C96.419 44.3431 96.767 45.9511 96.767 47.9191V59.0071H91.151V48.7831C91.151 47.2231 90.803 46.0711 90.107 45.3271C89.435 44.5831 88.475 44.2111 87.227 44.2111C86.339 44.2111 85.535 44.4031 84.815 44.7871C84.119 45.1471 83.567 45.7111 83.159 46.4791C82.775 47.2471 82.583 48.2311 82.583 49.4311V59.0071H76.967V39.6391H82.331V45.0031L81.323 43.3831C82.019 42.0871 83.015 41.0911 84.311 40.3951C85.607 39.6991 87.083 39.3511 88.739 39.3511ZM107.474 59.0071V38.5591H99.4096V33.8071H121.37V38.5591H113.306V59.0071H107.474ZM131.359 59.2951C129.295 59.2951 127.459 58.8631 125.851 57.9991C124.267 57.1351 123.007 55.9591 122.071 54.4711C121.159 52.9591 120.703 51.2431 120.703 49.3231C120.703 47.3791 121.159 45.6631 122.071 44.1751C123.007 42.6631 124.267 41.4871 125.851 40.6471C127.459 39.7831 129.295 39.3511 131.359 39.3511C133.399 39.3511 135.223 39.7831 136.831 40.6471C138.439 41.4871 139.699 42.6511 140.611 44.1391C141.523 45.6271 141.979 47.3551 141.979 49.3231C141.979 51.2431 141.523 52.9591 140.611 54.4711C139.699 55.9591 138.439 57.1351 136.831 57.9991C135.223 58.8631 133.399 59.2951 131.359 59.2951ZM131.359 54.6871C132.295 54.6871 133.135 54.4711 133.879 54.0391C134.623 53.6071 135.211 52.9951 135.643 52.2031C136.075 51.3871 136.291 50.4271 136.291 49.3231C136.291 48.1951 136.075 47.2351 135.643 46.4431C135.211 45.6511 134.623 45.0391 133.879 44.6071C133.135 44.1751 132.295 43.9591 131.359 43.9591C130.423 43.9591 129.583 44.1751 128.839 44.6071C128.095 45.0391 127.495 45.6511 127.039 46.4431C126.607 47.2351 126.391 48.1951 126.391 49.3231C126.391 50.4271 126.607 51.3871 127.039 52.2031C127.495 52.9951 128.095 53.6071 128.839 54.0391C129.583 54.4711 130.423 54.6871 131.359 54.6871ZM157.181 59.2951C155.549 59.2951 154.121 58.9351 152.897 58.2151C151.673 57.4951 150.713 56.4031 150.017 54.9391C149.345 53.4511 149.009 51.5791 149.009 49.3231C149.009 47.0431 149.333 45.1711 149.981 43.7071C150.629 42.2431 151.565 41.1511 152.789 40.4311C154.013 39.7111 155.477 39.3511 157.181 39.3511C159.005 39.3511 160.637 39.7711 162.077 40.6111C163.541 41.4271 164.693 42.5791 165.533 44.0671C166.397 45.5551 166.829 47.3071 166.829 49.3231C166.829 51.3631 166.397 53.1271 165.533 54.6151C164.693 56.1031 163.541 57.2551 162.077 58.0711C160.637 58.8871 159.005 59.2951 157.181 59.2951ZM145.733 65.9911V39.6391H151.097V43.5991L150.989 49.3591L151.349 55.0831V65.9911H145.733ZM156.209 54.6871C157.145 54.6871 157.973 54.4711 158.693 54.0391C159.437 53.6071 160.025 52.9951 160.457 52.2031C160.913 51.3871 161.141 50.4271 161.141 49.3231C161.141 48.1951 160.913 47.2351 160.457 46.4431C160.025 45.6511 159.437 45.0391 158.693 44.6071C157.973 44.1751 157.145 43.9591 156.209 43.9591C155.273 43.9591 154.433 44.1751 153.689 44.6071C152.945 45.0391 152.357 45.6511 151.925 46.4431C151.493 47.2351 151.277 48.1951 151.277 49.3231C151.277 50.4271 151.493 51.3871 151.925 52.2031C152.357 52.9951 152.945 53.6071 153.689 54.0391C154.433 54.4711 155.273 54.6871 156.209 54.6871Z" fill="#50E68C"/>
<path d="M45.708 79.0159V69.2159H49.586C50.622 69.2159 51.532 69.4259 52.316 69.8459C53.1 70.2659 53.7067 70.8446 54.136 71.5819C54.5747 72.3192 54.794 73.1639 54.794 74.1159C54.794 75.0679 54.5747 75.9126 54.136 76.6499C53.7067 77.3872 53.1 77.9659 52.316 78.3859C51.532 78.8059 50.622 79.0159 49.586 79.0159H45.708ZM46.422 78.3719H49.53C50.454 78.3719 51.2567 78.1899 51.938 77.8259C52.6193 77.4619 53.1467 76.9626 53.52 76.3279C53.8933 75.6839 54.08 74.9466 54.08 74.1159C54.08 73.2852 53.8933 72.5526 53.52 71.9179C53.1467 71.2739 52.6193 70.7699 51.938 70.4059C51.2567 70.0419 50.454 69.8599 49.53 69.8599H46.422V78.3719ZM55.4997 79.0159L60.0077 69.2159H60.7217L65.2297 79.0159H64.4597L60.2037 69.6639H60.5117L56.2697 79.0159H55.4997ZM57.1517 76.2579L57.3897 75.6559H63.2557L63.4937 76.2579H57.1517ZM68.3926 79.0159V69.8599H64.8646V69.2159H72.6346V69.8599H69.1066V79.0159H68.3926ZM72.2751 79.0159L76.7831 69.2159H77.4971L82.0051 79.0159H81.2351L76.9791 69.6639H77.2871L73.0451 79.0159H72.2751ZM73.9271 76.2579L74.1651 75.6559H80.0311L80.2691 76.2579H73.9271ZM87.7915 79.0859C87.0635 79.0859 86.3868 78.9646 85.7615 78.7219C85.1455 78.4699 84.6088 78.1199 84.1515 77.6719C83.6941 77.2239 83.3395 76.7012 83.0875 76.1039C82.8355 75.4972 82.7095 74.8346 82.7095 74.1159C82.7095 73.3972 82.8355 72.7392 83.0875 72.1419C83.3395 71.5352 83.6941 71.0079 84.1515 70.5599C84.6181 70.1119 85.1595 69.7666 85.7755 69.5239C86.3915 69.2719 87.0635 69.1459 87.7915 69.1459C88.4821 69.1459 89.1261 69.2579 89.7235 69.4819C90.3301 69.7059 90.8481 70.0466 91.2775 70.5039L90.8295 70.9659C90.4095 70.5552 89.9428 70.2612 89.4295 70.0839C88.9255 69.8972 88.3888 69.8039 87.8195 69.8039C87.1941 69.8039 86.6108 69.9112 86.0695 70.1259C85.5375 70.3406 85.0708 70.6439 84.6695 71.0359C84.2775 71.4279 83.9695 71.8852 83.7455 72.4079C83.5308 72.9306 83.4235 73.4999 83.4235 74.1159C83.4235 74.7319 83.5308 75.3012 83.7455 75.8239C83.9695 76.3466 84.2775 76.8039 84.6695 77.1959C85.0708 77.5879 85.5375 77.8912 86.0695 78.1059C86.6108 78.3206 87.1941 78.4279 87.8195 78.4279C88.3888 78.4279 88.9255 78.3392 89.4295 78.1619C89.9428 77.9752 90.4095 77.6719 90.8295 77.2519L91.2775 77.7139C90.8481 78.1712 90.3301 78.5166 89.7235 78.7499C89.1261 78.9739 88.4821 79.0859 87.7915 79.0859ZM97.6219 79.0859C96.8939 79.0859 96.2172 78.9646 95.5919 78.7219C94.9759 78.4699 94.4345 78.1199 93.9679 77.6719C93.5105 77.2146 93.1559 76.6872 92.9039 76.0899C92.6519 75.4832 92.5259 74.8252 92.5259 74.1159C92.5259 73.4066 92.6519 72.7532 92.9039 72.1559C93.1559 71.5492 93.5105 71.0219 93.9679 70.5739C94.4345 70.1166 94.9759 69.7666 95.5919 69.5239C96.2172 69.2719 96.8939 69.1459 97.6219 69.1459C98.3499 69.1459 99.0219 69.2719 99.6379 69.5239C100.263 69.7666 100.805 70.1119 101.262 70.5599C101.719 71.0079 102.074 71.5352 102.326 72.1419C102.587 72.7392 102.718 73.3972 102.718 74.1159C102.718 74.8346 102.587 75.4972 102.326 76.1039C102.074 76.7012 101.719 77.2239 101.262 77.6719C100.805 78.1199 100.263 78.4699 99.6379 78.7219C99.0219 78.9646 98.3499 79.0859 97.6219 79.0859ZM97.6219 78.4279C98.2472 78.4279 98.8259 78.3206 99.3579 78.1059C99.8899 77.8912 100.352 77.5879 100.744 77.1959C101.136 76.8039 101.439 76.3466 101.654 75.8239C101.878 75.3012 101.99 74.7319 101.99 74.1159C101.99 73.4906 101.878 72.9212 101.654 72.4079C101.439 71.8852 101.136 71.4279 100.744 71.0359C100.352 70.6439 99.8899 70.3406 99.3579 70.1259C98.8259 69.9112 98.2472 69.8039 97.6219 69.8039C96.9965 69.8039 96.4179 69.9112 95.8859 70.1259C95.3539 70.3406 94.8872 70.6439 94.4859 71.0359C94.0939 71.4279 93.7859 71.8852 93.5619 72.4079C93.3472 72.9212 93.2399 73.4906 93.2399 74.1159C93.2399 74.7319 93.3472 75.3012 93.5619 75.8239C93.7859 76.3466 94.0939 76.8039 94.4859 77.1959C94.8872 77.5879 95.3539 77.8912 95.8859 78.1059C96.4179 78.3206 96.9965 78.4279 97.6219 78.4279ZM105.194 79.0159V69.2159H105.908V78.3719H111.55V79.0159H105.194ZM113.384 79.0159V69.2159H114.098V78.3719H119.74V79.0159H113.384ZM122.203 73.7239H127.509V74.3539H122.203V73.7239ZM122.287 78.3719H128.335V79.0159H121.573V69.2159H128.125V69.8599H122.287V78.3719ZM135.041 79.0859C134.313 79.0859 133.637 78.9646 133.011 78.7219C132.395 78.4699 131.859 78.1199 131.401 77.6719C130.944 77.2239 130.589 76.7012 130.337 76.1039C130.085 75.4972 129.959 74.8346 129.959 74.1159C129.959 73.3972 130.085 72.7392 130.337 72.1419C130.589 71.5352 130.944 71.0079 131.401 70.5599C131.868 70.1119 132.409 69.7666 133.025 69.5239C133.641 69.2719 134.313 69.1459 135.041 69.1459C135.732 69.1459 136.376 69.2579 136.973 69.4819C137.58 69.7059 138.098 70.0466 138.527 70.5039L138.079 70.9659C137.659 70.5552 137.193 70.2612 136.679 70.0839C136.175 69.8972 135.639 69.8039 135.069 69.8039C134.444 69.8039 133.861 69.9112 133.319 70.1259C132.787 70.3406 132.321 70.6439 131.919 71.0359C131.527 71.4279 131.219 71.8852 130.995 72.4079C130.781 72.9306 130.673 73.4999 130.673 74.1159C130.673 74.7319 130.781 75.3012 130.995 75.8239C131.219 76.3466 131.527 76.8039 131.919 77.1959C132.321 77.5879 132.787 77.8912 133.319 78.1059C133.861 78.3206 134.444 78.4279 135.069 78.4279C135.639 78.4279 136.175 78.3392 136.679 78.1619C137.193 77.9752 137.659 77.6719 138.079 77.2519L138.527 77.7139C138.098 78.1712 137.58 78.5166 136.973 78.7499C136.376 78.9739 135.732 79.0859 135.041 79.0859ZM142.672 79.0159V69.8599H139.144V69.2159H146.914V69.8599H143.386V79.0159H142.672ZM152.706 79.0859C151.978 79.0859 151.301 78.9646 150.676 78.7219C150.06 78.4699 149.519 78.1199 149.052 77.6719C148.595 77.2146 148.24 76.6872 147.988 76.0899C147.736 75.4832 147.61 74.8252 147.61 74.1159C147.61 73.4066 147.736 72.7532 147.988 72.1559C148.24 71.5492 148.595 71.0219 149.052 70.5739C149.519 70.1166 150.06 69.7666 150.676 69.5239C151.301 69.2719 151.978 69.1459 152.706 69.1459C153.434 69.1459 154.106 69.2719 154.722 69.5239C155.347 69.7666 155.889 70.1119 156.346 70.5599C156.803 71.0079 157.158 71.5352 157.41 72.1419C157.671 72.7392 157.802 73.3972 157.802 74.1159C157.802 74.8346 157.671 75.4972 157.41 76.1039C157.158 76.7012 156.803 77.2239 156.346 77.6719C155.889 78.1199 155.347 78.4699 154.722 78.7219C154.106 78.9646 153.434 79.0859 152.706 79.0859ZM152.706 78.4279C153.331 78.4279 153.91 78.3206 154.442 78.1059C154.974 77.8912 155.436 77.5879 155.828 77.1959C156.22 76.8039 156.523 76.3466 156.738 75.8239C156.962 75.3012 157.074 74.7319 157.074 74.1159C157.074 73.4906 156.962 72.9212 156.738 72.4079C156.523 71.8852 156.22 71.4279 155.828 71.0359C155.436 70.6439 154.974 70.3406 154.442 70.1259C153.91 69.9112 153.331 69.8039 152.706 69.8039C152.081 69.8039 151.502 69.9112 150.97 70.1259C150.438 70.3406 149.971 70.6439 149.57 71.0359C149.178 71.4279 148.87 71.8852 148.646 72.4079C148.431 72.9212 148.324 73.4906 148.324 74.1159C148.324 74.7319 148.431 75.3012 148.646 75.8239C148.87 76.3466 149.178 76.8039 149.57 77.1959C149.971 77.5879 150.438 77.8912 150.97 78.1059C151.502 78.3206 152.081 78.4279 152.706 78.4279ZM160.278 79.0159V69.2159H163.792C164.614 69.2159 165.318 69.3466 165.906 69.6079C166.494 69.8692 166.947 70.2472 167.264 70.7419C167.582 71.2272 167.74 71.8199 167.74 72.5199C167.74 73.2012 167.582 73.7892 167.264 74.2839C166.947 74.7692 166.494 75.1472 165.906 75.4179C165.318 75.6792 164.614 75.8099 163.792 75.8099H160.67L160.992 75.4739V79.0159H160.278ZM167.082 79.0159L164.534 75.4599H165.346L167.894 79.0159H167.082ZM160.992 75.5159L160.67 75.1799H163.792C164.847 75.1799 165.645 74.9466 166.186 74.4799C166.737 74.0132 167.012 73.3599 167.012 72.5199C167.012 71.6706 166.737 71.0172 166.186 70.5599C165.645 70.0932 164.847 69.8599 163.792 69.8599H160.67L160.992 69.5099V75.5159Z" fill="#5C5C5C"/>
<path d="M1 79.223V37.2097C1 36.2918 1.42024 35.4244 2.1406 34.8555L13.0151 26.2668C13.9828 25.5025 15.3196 25.4082 16.385 26.0291L32.5105 35.4261C33.4328 35.9636 34 36.9506 34 38.0181V78.932C34 80.1435 33.2713 81.2361 32.1529 81.7016L16.0072 88.4222C15.1336 88.7858 14.1396 88.716 13.3254 88.2337L2.47106 81.8042C1.5592 81.264 1 80.2828 1 79.223Z" stroke="#333333"/>
<path d="M32.4105 36.6576C32.717 36.8365 32.9058 37.1643 32.9065 37.5192L32.9985 79.3254C32.9994 79.7298 32.7567 80.095 32.3834 80.2506L16.3849 86.9225C15.7262 87.1972 15 86.7132 15 85.9995V28.2412C15 27.4693 15.8373 26.9885 16.5039 27.3774L32.4105 36.6576Z" fill="#333333"/>
<path d="M17.5 35.7591C17.5 35.0434 18.23 34.5594 18.8892 34.838L22.8892 36.5283C23.2594 36.6847 23.5 37.0475 23.5 37.4494V40.3402V41.9841C23.5 42.6303 22.8963 43.1068 22.2678 42.9568L18.2678 42.0019C17.8176 41.8944 17.5 41.492 17.5 41.0292V35.7591Z" fill="white"/>
<path d="M17.5 58.4245C17.5 57.8089 18.0509 57.3395 18.6588 57.4372L22.6587 58.0803C23.1435 58.1583 23.5 58.5766 23.5 59.0677V61.0659V64.0534C23.5 64.6332 23.0084 65.0915 22.4299 65.0509L18.43 64.77C17.9061 64.7332 17.5 64.2975 17.5 63.7724V58.4245Z" fill="white"/>
<path d="M24.9951 48.0771C24.9951 47.4423 25.579 46.9681 26.2003 47.0984L30.2004 47.9372C30.6635 48.0343 30.9951 48.4427 30.9951 48.9159V51.3321C30.9951 52.4426 30.9951 53.1964 30.9951 54.115C30.9951 54.7071 30.4835 55.1698 29.8944 55.1101L25.8943 54.705C25.3837 54.6533 24.9951 54.2234 24.9951 53.7101V48.0771Z" fill="white"/>
<path d="M24.9713 70.3191C24.983 69.7314 25.4984 69.2789 26.0825 69.3453L30.1082 69.8033C30.6134 69.8608 30.9951 70.2883 30.9951 70.7969V72.5178V75.6162C30.9951 76.1013 30.6471 76.5163 30.1695 76.6009L26.1638 77.3104C25.5532 77.4185 24.9928 76.9496 24.9849 76.3296C24.9582 74.2315 24.9034 73.7279 24.9713 70.3191Z" fill="white"/>
<path d="M40.1838 9.53339C33.5417 10.3223 29.266 13.3963 28.0021 18.3201C27.5987 19.8434 27.6794 22.1829 28.1096 22.455C28.2172 22.5094 28.9971 21.53 29.8576 20.2515C30.6912 19.0001 32.224 17.0687 33.2728 15.9806L35.1283 14.0219L33.0308 16.6062C30.6105 19.5714 28.7819 22.3461 27.1416 25.4201C26.039 27.5148 25.9852 27.5692 25.797 26.7803C25.6894 26.345 25.2592 25.2841 24.8289 24.3864C23.9953 22.6998 23.9684 21.9109 24.802 23.4615L25.2861 24.3592L25.3667 22.7542C25.4743 20.7684 24.8827 18.7825 23.6726 17.1231C22.6238 15.6269 21.0103 14.7564 18.9397 14.5116L17.4876 14.3484L18.1867 15.1373C19.2355 16.307 19.6389 17.2319 20.5532 20.7956C21.5751 24.7672 22.328 25.937 23.7264 25.801C24.318 25.7466 24.7213 25.8826 24.8827 26.1274C25.2861 26.7531 25.2054 28.1132 24.7213 28.7933C24.2104 29.5278 24.3718 29.7998 25.6894 30.4799L26.7113 30.9968L27.3029 29.0381C27.6256 27.9772 28.1903 26.5082 28.5399 25.8282L29.1584 24.5496L30.2341 24.8216C31.7669 25.2297 32.9501 24.9033 34.2678 23.7879C35.5585 22.6726 36.2308 21.4212 37.6561 17.5584C39.3771 12.8794 40.1838 11.5736 42.2276 10.1863C43.5184 9.28856 43.5453 9.26136 42.7654 9.28856C42.3083 9.31577 41.1519 9.42458 40.1838 9.53339Z" fill="#50E68C"/>
</svg>
